<svg width="1024" height="1024" viewBox="0 0 1024 1024" fill="none" xmlns="http://www.w3.org/2000/svg">
<g clip-path="url(#clip0_81_191)">
<mask id="mask0_81_191" style="mask-type:alpha" maskUnits="userSpaceOnUse" x="4" y="0" width="1024" height="1024">
<circle cx="516" cy="512" r="512" fill="#D9D9D9"/>
</mask>
<g mask="url(#mask0_81_191)">
<circle cx="880" cy="245" r="50" fill="#06B6D4"/>
<circle cx="324" cy="245" r="50" fill="#06B6D4"/>
<path d="M240 84C372.548 84 480 191.452 480 324C480 456.548 372.548 564 240 564C107.452 564 0 456.548 0 324C0 191.452 107.452 84 240 84ZM240 164C151.634 164 80 235.634 80 324C80 412.366 151.634 484 240 484C328.366 484 400 412.366 400 324C400 235.634 328.366 164 240 164Z" fill="#06B6D4"/>
<path d="M784 84C916.548 84 1024 191.452 1024 324C1024 456.548 916.548 564 784 564C651.452 564 544 456.548 544 324C544 191.452 651.452 84 784 84ZM784 164C695.634 164 624 235.634 624 324C624 412.366 695.634 484 784 484C872.366 484 944 412.366 944 324C944 235.634 872.366 164 784 164Z" fill="#06B6D4"/>
<circle cx="240" cy="341" r="96" fill="#06B6D4"/>
<circle cx="784" cy="341" r="96" fill="#06B6D4"/>
<path d="M307.743 899.653L31.9395 575.412L298.827 643.18L301.892 643.958L304.846 642.833L499.766 568.64L714.193 642.937L717.003 643.909L719.889 643.189L991.752 575.355L711.054 899.631L509.146 1012.54L307.743 899.653Z" fill="#040512" stroke="#61C9FF" stroke-width="20"/>
</g>
</g>
<defs>
<clipPath id="clip0_81_191">
<rect width="1024" height="1024" fill="white"/>
</clipPath>
</defs>
</svg>
